<svg width="23" height="25" viewBox="0 0 23 25" fill="none" xmlns="http://www.w3.org/2000/svg">
<g clip-path="url(#clip0_87_312)">
<path d="M11.5 0.368967C9.94783 0.368967 8.44166 0.680887 7.02354 1.29663C5.65406 1.89114 4.42421 2.74192 3.36819 3.82572C2.31216 4.90952 1.48317 6.1717 0.9039 7.57719C0.304257 9.0326 0 10.5784 0 12.1714C0 13.7643 0.304257 15.3101 0.9039 16.7655C1.48317 18.171 2.31216 19.4332 3.36819 20.517C4.42421 21.6008 5.65406 22.4516 7.02354 23.0461C8.44166 23.6615 9.94783 23.9738 11.5 23.9738C13.0522 23.9738 14.5583 23.6615 15.9765 23.0461C17.3459 22.4516 18.5758 21.6008 19.6318 20.517C20.6878 19.4332 21.5168 18.171 22.0961 16.7655C22.6961 15.3101 23 13.7643 23 12.1714C23 10.5784 22.6961 9.0326 22.0961 7.57719C21.5168 6.1717 20.6878 4.90952 19.6318 3.82572C18.5758 2.74192 17.3459 1.89114 15.9765 1.29663C14.5583 0.680887 13.0522 0.368967 11.5 0.368967ZM11.5 22.8498C8.72094 22.8498 6.10781 21.7391 4.14263 19.7222C2.17744 17.7053 1.09513 15.0238 1.09513 12.1714C1.09513 9.31889 2.17744 6.63738 4.14263 4.62053C6.10781 2.60366 8.72061 1.49289 11.5 1.49289C14.2794 1.49289 16.8922 2.60366 18.8574 4.62053C20.8226 6.63738 21.9049 9.31889 21.9049 12.1714C21.9049 15.0238 20.8226 17.7053 18.8574 19.7222C16.8922 21.7391 14.2794 22.8498 11.5 22.8498Z" fill="black"/>
<path d="M11.5 0.171391L11.1317 0.515007C9.61628 1.92893 8.46365 3.63152 7.70597 5.57587C6.95321 7.50708 6.57141 9.72627 6.57141 12.1711C6.57141 14.6158 6.95321 16.835 7.70597 18.7662C8.46365 20.7106 9.61628 22.4132 11.1317 23.8271L11.5 24.1707L11.8683 23.8271C13.3837 22.4132 14.5363 20.7106 15.294 18.7662C16.0468 16.835 16.4282 14.6158 16.4282 12.1711C16.4282 9.72627 16.0464 7.50708 15.294 5.57587C14.5363 3.63152 13.3837 1.92893 11.8683 0.515007L11.5 0.171391ZM11.5 22.6381C10.2889 21.4137 9.35573 19.9731 8.72257 18.3491C8.02173 16.5511 7.66654 14.4725 7.66654 12.1714C7.66654 9.87026 8.02173 7.79135 8.72257 5.99368C9.3554 4.36967 10.2885 2.9291 11.5 1.70469C12.7111 2.9291 13.6442 4.36967 14.2774 5.99368C14.9782 7.79169 15.3334 9.87026 15.3334 12.1714C15.3334 14.4725 14.9782 16.5514 14.2774 18.3491C13.6446 19.9731 12.7114 21.4137 11.5 22.6381Z" fill="black"/>
<path d="M21.9048 8.23747H1.09509C0.792478 8.23747 0.547363 8.48903 0.547363 8.7996C0.547363 9.11017 0.792478 9.36173 1.09509 9.36173H21.9045C22.2071 9.36173 22.4522 9.11017 22.4522 8.7996C22.4522 8.48903 22.2071 8.23747 21.9045 8.23747H21.9048ZM21.9048 14.9817H1.09509C0.792478 14.9817 0.547363 15.2333 0.547363 15.5438C0.547363 15.8544 0.792478 16.106 1.09509 16.106H21.9045C22.2071 16.106 22.4522 15.8544 22.4522 15.5438C22.4522 15.2333 22.2071 14.9817 21.9045 14.9817H21.9048Z" fill="black"/>
</g>
<defs>
<clipPath id="clip0_87_312">
<rect width="23" height="24" fill="white" transform="matrix(1 0 0 -1 0 24.1714)"/>
</clipPath>
</defs>
</svg>
