<svg width="25" height="25" viewBox="0 0 25 25" fill="none" xmlns="http://www.w3.org/2000/svg">
<path d="M12.5002 12.3125C15.2617 12.3125 17.5002 10.0739 17.5002 7.3125C17.5002 4.55108 15.2617 2.3125 12.5002 2.3125C9.73882 2.3125 7.50024 4.55108 7.50024 7.3125C7.50024 10.0739 9.73882 12.3125 12.5002 12.3125Z" stroke="#171717" stroke-width="1.5" stroke-linecap="round" stroke-linejoin="round"/>
<path d="M3.91028 22.3125C3.91028 18.4425 7.76027 15.3125 12.5003 15.3125C13.4603 15.3125 14.3903 15.4425 15.2603 15.6825" stroke="#171717" stroke-width="1.5" stroke-linecap="round" stroke-linejoin="round"/>
<path d="M22.5002 18.3125C22.5002 18.6325 22.4602 18.9425 22.3802 19.2425C22.2902 19.6425 22.1303 20.0325 21.9203 20.3725C21.2303 21.5325 19.9602 22.3125 18.5002 22.3125C17.4702 22.3125 16.5402 21.9225 15.8402 21.2825C15.5402 21.0225 15.2802 20.7125 15.0802 20.3725C14.7102 19.7725 14.5002 19.0625 14.5002 18.3125C14.5002 17.2325 14.9302 16.2425 15.6302 15.5225C16.3602 14.7725 17.3802 14.3125 18.5002 14.3125C19.6802 14.3125 20.7502 14.8225 21.4702 15.6425C22.1102 16.3525 22.5002 17.2925 22.5002 18.3125Z" stroke="#171717" stroke-width="1.5" stroke-miterlimit="10" stroke-linecap="round" stroke-linejoin="round"/>
<path d="M19.9902 18.2925H17.0103" stroke="#171717" stroke-width="1.5" stroke-miterlimit="10" stroke-linecap="round" stroke-linejoin="round"/>
<path d="M18.5002 16.8325V19.8225" stroke="#171717" stroke-width="1.5" stroke-miterlimit="10" stroke-linecap="round" stroke-linejoin="round"/>
</svg>
