<svg width="97" height="97" viewBox="0 0 97 97" fill="none" xmlns="http://www.w3.org/2000/svg">
<path d="M82.5264 14.4046C73.487 5.36518 61.2268 0.286865 48.4431 0.286865C35.6594 0.286865 23.3993 5.36518 14.3598 14.4046C5.32038 23.4441 0.242065 35.7042 0.242065 48.4879C0.242065 61.2716 5.32038 73.5318 14.3598 82.5712C23.3993 91.6107 35.6594 96.689 48.4431 96.689C61.2268 96.689 73.487 91.6107 82.5264 82.5712C91.5659 73.5318 96.6442 61.2716 96.6442 48.4879C96.6442 35.7042 91.5659 23.4441 82.5264 14.4046ZM48.4431 90.2285C25.4278 90.2285 6.70258 71.5037 6.70258 48.4879C6.70258 25.4722 25.4274 6.74738 48.4431 6.74738C71.4589 6.74738 90.1837 25.4722 90.1837 48.4879C90.1837 71.5037 71.4589 90.2285 48.4431 90.2285Z" fill="#131E3C"/>
<path d="M41.1791 58.5942L26.3578 43.7731L21.7897 48.3412L41.1791 67.7306L74.9955 33.9145L70.4271 29.3463L41.1791 58.5942Z" fill="#131E3C"/>
</svg>
