<svg width="25" height="25" viewBox="0 0 25 25" fill="none" xmlns="http://www.w3.org/2000/svg">
<path d="M12.5 12.4536C15.2614 12.4536 17.5 10.215 17.5 7.45361C17.5 4.69219 15.2614 2.45361 12.5 2.45361C9.73858 2.45361 7.5 4.69219 7.5 7.45361C7.5 10.215 9.73858 12.4536 12.5 12.4536Z" stroke="#171717" stroke-width="1.5" stroke-linecap="round" stroke-linejoin="round"/>
<path d="M3.91 22.4536C3.91 18.5836 7.76 15.4536 12.5 15.4536C13.46 15.4536 14.39 15.5836 15.26 15.8236" stroke="#171717" stroke-width="1.5" stroke-linecap="round" stroke-linejoin="round"/>
<path d="M22.5 18.4536C22.5 18.7736 22.46 19.0836 22.38 19.3836C22.29 19.7836 22.13 20.1736 21.92 20.5136C21.23 21.6736 19.96 22.4536 18.5 22.4536C17.47 22.4536 16.54 22.0636 15.84 21.4236C15.54 21.1636 15.28 20.8536 15.08 20.5136C14.71 19.9136 14.5 19.2036 14.5 18.4536C14.5 17.3736 14.93 16.3836 15.63 15.6636C16.36 14.9136 17.38 14.4536 18.5 14.4536C19.68 14.4536 20.75 14.9636 21.47 15.7836C22.11 16.4936 22.5 17.4336 22.5 18.4536Z" stroke="#171717" stroke-width="1.5" stroke-miterlimit="10" stroke-linecap="round" stroke-linejoin="round"/>
<path d="M19.99 18.4336H17.01" stroke="#171717" stroke-width="1.5" stroke-miterlimit="10" stroke-linecap="round" stroke-linejoin="round"/>
<path d="M18.5 16.9736V19.9636" stroke="#171717" stroke-width="1.5" stroke-miterlimit="10" stroke-linecap="round" stroke-linejoin="round"/>
</svg>
