<?xml version="1.0" encoding="UTF-8"?>
<svg id="Layer_1" data-name="Layer 1" xmlns="http://www.w3.org/2000/svg" xmlns:xlink="http://www.w3.org/1999/xlink" viewBox="0 0 67 67">
  <defs>
    <style>
      .cls-1 {
        fill: #fff;
      }

      .cls-2 {
        fill: url(#radial-gradient);
      }
    </style>
    <radialGradient id="radial-gradient" cx="33.5" cy="33.5" fx="33.5" fy="33.5" r="50" gradientTransform="translate(11.06 11.06) scale(.67)" gradientUnits="userSpaceOnUse">
      <stop offset="0" stop-color="#203154"/>
      <stop offset="1" stop-color="#131d36"/>
    </radialGradient>
  </defs>
  <rect class="cls-2" width="67" height="67"/>
  <g>
    <path class="cls-1" d="m53.81,19.92H13.11c-1.46,0-2.62,1.16-2.62,2.62v8.59c0,1.16.8,2.26,1.97,2.55l.8.22v14.27c0,1.31,1.09,2.4,2.4,2.4h35.68c1.31,0,2.4-1.09,2.4-2.4v-14.27l.8-.22c1.16-.29,1.97-1.31,1.97-2.55v-8.59c-.07-1.46-1.24-2.62-2.69-2.62Zm-1.53,28.25c0,.51-.44.95-.95.95H15.66c-.51,0-.95-.44-.95-.95v-13.91l16.09,4.3v1.38c0,1.02.8,1.82,1.82,1.82h1.38c1.02,0,1.82-.8,1.82-1.82v-1.38l16.45-4.3v13.91Zm-20.02-8.23v-3.35c0-.22.15-.36.36-.36h1.38c.22,0,.36.15.36.36v3.35c0,.22-.15.36-.36.36h-1.38c-.22,0-.36-.15-.36-.36Zm22.72-8.81c0,.51-.36,1.02-.87,1.16l-18.28,4.81v-.44c0-1.02-.8-1.82-1.82-1.82h-1.38c-1.02,0-1.82.8-1.82,1.82v.44l-17.98-4.81c-.51-.15-.87-.58-.87-1.09v-8.59c0-.66.51-1.16,1.16-1.16h40.7c.66,0,1.16.51,1.16,1.16v8.52Z"/>
    <path class="cls-1" d="m28.04,19.41c.44,0,.73-.29.73-.73s.36-.8.8-.8h7.79c.44,0,.8.36.8.8s.29.73.73.73.73-.29.73-.73c0-1.24-1.02-2.26-2.26-2.26h-7.79c-1.24,0-2.26,1.02-2.26,2.26,0,.36.36.73.73.73Z"/>
  </g>
</svg>