<svg width="55" height="29" viewBox="0 0 55 29" fill="none" xmlns="http://www.w3.org/2000/svg">
<path d="M54.3577 21.0407L47.955 0.579224H41.2235L34.7983 21.0407H41.3415L44.5892 8.43072L47.955 21.0265H54.383" fill="white"/>
<path d="M16.8178 0.635864L23.2234 21.0973H29.9548L36.3773 0.635864H29.834L26.5891 13.2458L23.2234 0.650026H16.7925" fill="white"/>
<path d="M0.725281 23.1934H1.78726V27.578H2.89699V28.5948H0.725281V23.1934Z" fill="white"/>
<path d="M4.80735 24.975H5.81595V28.5948H4.80735V28.1841C4.63035 28.5042 4.41122 28.6656 4.14713 28.6656C4.0207 28.6656 3.89709 28.6288 3.77909 28.558C3.6639 28.4843 3.56557 28.3852 3.48972 28.2606C3.27339 27.9094 3.16382 27.4137 3.16382 26.7736C3.16382 26.1334 3.26496 25.6491 3.46162 25.3092C3.53467 25.1846 3.633 25.0883 3.7538 25.0146C3.87461 24.941 3.99823 24.907 4.13027 24.907C4.41684 24.907 4.64159 25.0798 4.80454 25.4225V24.975H4.80735ZM4.54045 25.8105C4.42807 25.8105 4.34098 25.8955 4.27917 26.0654C4.21736 26.2354 4.18646 26.4733 4.18646 26.7821C4.18646 27.0908 4.21736 27.3315 4.27917 27.5015C4.34098 27.6714 4.42807 27.7592 4.54045 27.7592C4.63035 27.7592 4.70621 27.6941 4.76802 27.561C4.79892 27.4987 4.82702 27.3882 4.84949 27.2296C4.87197 27.0738 4.88321 26.9293 4.88321 26.7934C4.88321 26.4846 4.8523 26.2439 4.7933 26.0711C4.7343 25.8983 4.65002 25.8105 4.54326 25.8077" fill="white"/>
<path d="M7.46514 22.8138V25.4225C7.62528 25.077 7.85284 24.907 8.13941 24.907C8.27145 24.907 8.39507 24.9438 8.51588 25.0146C8.63668 25.0883 8.7322 25.1846 8.80525 25.3092C9.00472 25.6463 9.10305 26.1335 9.10305 26.7736C9.10305 27.4137 8.99348 27.9094 8.77716 28.2606C8.7013 28.3881 8.60578 28.4872 8.48778 28.558C8.37259 28.6317 8.24898 28.6656 8.12255 28.6656C7.85846 28.6656 7.63933 28.5042 7.46233 28.1841V28.5948H6.45374V22.8138H7.46233H7.46514ZM7.73204 25.8106C7.62809 25.8106 7.54661 25.8984 7.48481 26.0711C7.423 26.2439 7.39209 26.479 7.39209 26.7736C7.39209 27.0682 7.423 27.3231 7.48481 27.4959C7.54661 27.6686 7.62809 27.7564 7.73204 27.7564C7.84442 27.7564 7.93151 27.6715 7.99332 27.4987C8.05513 27.3287 8.08884 27.088 8.08884 26.7792C8.08884 26.1335 7.97084 25.8106 7.73204 25.8077" fill="white"/>
<path d="M11.196 27.476H12.0473C11.9967 27.7564 11.9349 27.9689 11.8619 28.119C11.7776 28.2889 11.6512 28.4249 11.4798 28.5212C11.3112 28.6175 11.1146 28.6656 10.8898 28.6656C10.4684 28.6656 10.1369 28.5042 9.89526 28.1841C9.65364 27.8641 9.53284 27.425 9.53284 26.8699C9.53284 26.2213 9.67331 25.7171 9.95426 25.3602C10.1902 25.0571 10.4965 24.9042 10.8673 24.9042C11.2578 24.9042 11.5613 25.0571 11.7776 25.363C11.9939 25.6689 12.1035 26.0938 12.1035 26.6376C12.1035 26.7481 12.0951 26.8869 12.081 27.0568H10.4965C10.5021 27.3089 10.5218 27.4958 10.5555 27.612C10.6117 27.8102 10.7184 27.9066 10.8814 27.9066C11.0808 27.9066 11.1848 27.7621 11.196 27.4732M11.2382 26.4309C11.2382 26.377 11.2382 26.343 11.2382 26.3289C11.2382 26.1278 11.2045 25.9663 11.1398 25.8474C11.0724 25.7312 10.9853 25.6718 10.8729 25.6718C10.7606 25.6718 10.6707 25.7312 10.606 25.8474C10.5414 25.9635 10.5077 26.125 10.5077 26.3289C10.5077 26.3374 10.5077 26.3714 10.5133 26.4309H11.2382Z" fill="white"/>
<path d="M13.6431 22.8138H12.6345V28.5948H13.6431V22.8138Z" fill="white"/>
<path d="M14.9186 22.8138H15.9861L14.9186 25.0061H14.2078L14.9186 22.8138Z" fill="white"/>
<path d="M17.374 25.2157L16.9695 25.955C16.7981 25.7907 16.6408 25.7085 16.5003 25.7085C16.4216 25.7085 16.357 25.7312 16.3092 25.7793C16.2615 25.8275 16.2362 25.8898 16.2362 25.9691C16.2362 26.0399 16.2587 26.0994 16.3064 26.1447C16.3542 26.19 16.4581 26.2552 16.6211 26.3373C16.8908 26.4761 17.0818 26.6262 17.1942 26.7905C17.3066 26.952 17.3628 27.1587 17.3628 27.4108C17.3628 27.7649 17.2701 28.051 17.0847 28.2776C16.8683 28.5381 16.5818 28.6684 16.2278 28.6684C15.8513 28.6684 15.4861 28.5325 15.1321 28.2577L15.576 27.5383C15.7586 27.6884 15.9215 27.762 16.0732 27.762C16.1688 27.762 16.2446 27.7337 16.3036 27.6799C16.3626 27.6233 16.3907 27.5524 16.3907 27.4646C16.3907 27.391 16.3682 27.3315 16.3233 27.2834C16.2783 27.2352 16.1912 27.1757 16.0592 27.1049C15.7642 26.952 15.5647 26.8132 15.458 26.6857C15.2978 26.5016 15.2192 26.2665 15.2192 25.9833C15.2192 25.6462 15.3428 25.3743 15.5928 25.1732C15.8063 24.9976 16.0817 24.9098 16.416 24.9098C16.7503 24.9098 17.0762 25.0146 17.374 25.2214" fill="white"/>
<path d="M19.4025 23.1934H22.1305V24.1819H21.2989V28.5948H20.2369V24.1819H19.4025V23.1934Z" fill="white"/>
<path d="M23.7122 24.9042C24.1842 24.9042 24.5354 25.0911 24.7714 25.4707C24.9708 25.7879 25.0692 26.2354 25.0692 26.8104C25.0692 27.3486 24.9708 27.7791 24.7714 28.0992C24.5354 28.4759 24.1842 28.6656 23.715 28.6656C23.42 28.6656 23.1615 28.5807 22.9424 28.4136C22.7205 28.2408 22.5575 27.9689 22.4536 27.595C22.3833 27.3344 22.3468 27.0625 22.3468 26.7849C22.3468 26.2694 22.4479 25.8389 22.653 25.4905C22.875 25.1109 23.229 24.9155 23.7122 24.9042ZM23.715 25.8134C23.6026 25.8134 23.5155 25.8984 23.4537 26.0683C23.3919 26.2382 23.361 26.4762 23.361 26.7821C23.361 27.088 23.3919 27.3287 23.4537 27.4987C23.5155 27.6686 23.6026 27.7536 23.715 27.7536C23.819 27.7536 23.9032 27.6686 23.9622 27.4958C24.0212 27.3231 24.0521 27.0908 24.0521 26.7962C24.0521 26.5017 24.024 26.2524 23.965 26.0796C23.9061 25.9069 23.8218 25.8191 23.715 25.8162" fill="white"/>
<path d="M25.6985 23.978H26.7071V24.975H27.1117V25.8134H26.7071V28.5949H25.6985V25.8134H25.3558V24.975H25.6985V23.978Z" fill="white"/>
<path d="M28.9856 24.975H29.9942V28.5948H28.9856V28.1841C28.8114 28.5042 28.5922 28.6656 28.3253 28.6656C28.1961 28.6656 28.0753 28.6288 27.9601 28.558C27.8449 28.4843 27.7466 28.3852 27.6707 28.2606C27.4544 27.9094 27.3448 27.4137 27.3448 26.7736C27.3448 26.1334 27.4432 25.6491 27.6427 25.3092C27.7157 25.1846 27.8112 25.0883 27.9348 25.0146C28.0556 24.941 28.1793 24.907 28.3113 24.907C28.5979 24.907 28.8254 25.0798 28.9856 25.4225V24.975ZM28.7187 25.8105C28.6063 25.8105 28.5192 25.8955 28.4574 26.0654C28.3956 26.2354 28.3619 26.4733 28.3619 26.7821C28.3619 27.0908 28.3928 27.3315 28.4574 27.5015C28.5192 27.6714 28.6063 27.7592 28.7187 27.7592C28.8114 27.7592 28.8844 27.6941 28.9462 27.561C28.9771 27.4987 29.0052 27.3882 29.0249 27.2296C29.0474 27.0738 29.0586 26.9293 29.0586 26.7934C29.0586 26.4846 29.0277 26.2439 28.9687 26.0711C28.9097 25.8983 28.8254 25.8105 28.7187 25.8077" fill="white"/>
<path d="M31.6433 22.8138H30.6347V28.5948H31.6433V22.8138Z" fill="white"/>
<path d="M36.0991 23.3718V24.4113C35.821 24.1819 35.5653 24.0686 35.3265 24.0686C35.1692 24.0686 35.0428 24.1167 34.9473 24.213C34.8517 24.3093 34.8012 24.4368 34.8012 24.5954C34.8012 24.7427 34.8405 24.8758 34.922 24.992C35.0034 25.1081 35.1523 25.2469 35.3687 25.4112C35.6243 25.6066 35.8069 25.7511 35.9109 25.8474C36.0177 25.9437 36.1019 26.0428 36.1666 26.1419C36.3295 26.3884 36.411 26.6801 36.411 27.0172C36.411 27.3542 36.3323 27.6856 36.1722 27.9717C36.0261 28.2408 35.8126 28.4334 35.5316 28.5523C35.3237 28.6401 35.1074 28.6826 34.8854 28.6826C34.5343 28.6826 34.2252 28.592 33.9583 28.4107V27.391C34.2421 27.5836 34.5034 27.6799 34.7478 27.6799C34.9388 27.6799 35.0905 27.6233 35.2057 27.5128C35.3181 27.4024 35.3743 27.2579 35.3743 27.0823C35.3743 26.9322 35.3378 26.8132 35.2703 26.7282C35.2001 26.6433 35.0259 26.5016 34.7422 26.3062C34.4668 26.1164 34.2589 25.9352 34.1157 25.7652C33.8768 25.4848 33.7589 25.1336 33.7589 24.7087C33.7589 24.2385 33.8937 23.8448 34.1662 23.5304C34.4078 23.25 34.7365 23.1084 35.1552 23.1084C35.4698 23.1084 35.7845 23.199 36.0963 23.3775" fill="white"/>
<path d="M38.1893 24.9042C38.6613 24.9042 39.0153 25.0911 39.2513 25.4707C39.4508 25.7879 39.5491 26.2354 39.5491 26.8104C39.5491 27.3486 39.4508 27.7791 39.2513 28.0992C39.0153 28.4759 38.6641 28.6656 38.1949 28.6656C37.8971 28.6656 37.6415 28.5807 37.4223 28.4136C37.2004 28.2408 37.0374 27.9689 36.9307 27.595C36.8604 27.3344 36.8239 27.0625 36.8239 26.7849C36.8239 26.2694 36.9251 25.8389 37.1301 25.4905C37.3521 25.1109 37.7061 24.9155 38.1893 24.9042ZM38.1949 25.8134C38.0826 25.8134 37.9955 25.8984 37.9337 26.0683C37.8718 26.2382 37.8409 26.4762 37.8409 26.7821C37.8409 27.088 37.8718 27.3287 37.9337 27.4987C37.9955 27.6686 38.0826 27.7536 38.1949 27.7536C38.2989 27.7536 38.3832 27.6686 38.4422 27.4958C38.504 27.3231 38.5321 27.0908 38.5321 26.7962C38.5321 26.5017 38.504 26.2524 38.445 26.0796C38.386 25.9069 38.3017 25.8191 38.1949 25.8162" fill="white"/>
<path d="M41.0887 22.8138H40.0801V28.5948H41.0887V22.8138Z" fill="white"/>
<path d="M41.7321 24.975H42.7407V27.0483C42.7407 27.3344 42.752 27.51 42.78 27.5751C42.8222 27.6714 42.8896 27.7224 42.9879 27.7224C43.0863 27.7224 43.1537 27.6771 43.1874 27.5893C43.2211 27.5015 43.238 27.3202 43.238 27.0483V24.975H44.2466V27.3769C44.2466 27.5582 44.2353 27.7026 44.2101 27.8074C44.1876 27.9122 44.1426 28.0113 44.0808 28.1105C43.9769 28.2748 43.8308 28.405 43.6482 28.5014C43.4403 28.6118 43.2183 28.6656 42.9767 28.6656C42.648 28.6656 42.3642 28.5693 42.1254 28.3824C41.9091 28.2096 41.7827 27.9858 41.7434 27.7054C41.7349 27.6346 41.7321 27.4788 41.7321 27.2353V24.975Z" fill="white"/>
<path d="M44.9826 23.978H45.9912V24.975H46.3986V25.8134H45.9912V28.5949H44.9826V25.8134H44.6398V24.975H44.9826V23.978Z" fill="white"/>
<path d="M47.2723 23.2615C47.4437 23.2615 47.5926 23.3238 47.7162 23.4512C47.8398 23.5787 47.9017 23.7288 47.9017 23.9044C47.9017 24.097 47.8314 24.2557 47.6909 24.3831C47.5701 24.4936 47.4297 24.5502 47.2667 24.5502C47.0869 24.5502 46.9352 24.4879 46.8116 24.3605C46.688 24.233 46.6262 24.08 46.6262 23.9016C46.6262 23.7232 46.688 23.5759 46.8144 23.4484C46.9408 23.3238 47.0925 23.2643 47.2751 23.2643M46.7413 24.9779H47.7499V28.5978H46.7413V24.9779Z" fill="white"/>
<path d="M49.6548 24.9042C50.1268 24.9042 50.4779 25.0911 50.7139 25.4707C50.9134 25.7879 51.0117 26.2354 51.0117 26.8104C51.0117 27.3486 50.9106 27.7791 50.7139 28.0992C50.4779 28.4759 50.1268 28.6656 49.6576 28.6656C49.3626 28.6656 49.1041 28.5807 48.885 28.4136C48.663 28.2408 48.4973 27.9689 48.3933 27.595C48.3231 27.3344 48.2866 27.0625 48.2866 26.7849C48.2866 26.2694 48.3877 25.8389 48.5928 25.4905C48.8147 25.1109 49.1687 24.9155 49.652 24.9042M49.6548 25.8134C49.5424 25.8134 49.4553 25.8984 49.3935 26.0683C49.3317 26.2382 49.3008 26.4762 49.3008 26.7821C49.3008 27.088 49.3317 27.3287 49.3935 27.4987C49.4553 27.6686 49.5424 27.7536 49.6548 27.7536C49.7615 27.7536 49.843 27.6686 49.902 27.4958C49.9638 27.3231 49.9919 27.0908 49.9919 26.7962C49.9919 26.5017 49.9638 26.2524 49.9048 26.0796C49.8458 25.9069 49.7615 25.8191 49.6548 25.8162" fill="white"/>
<path d="M51.5455 24.975H52.5541V25.5414C52.6384 25.3743 52.7171 25.2497 52.7929 25.1704C52.9643 24.9948 53.1694 24.907 53.4054 24.907C53.529 24.907 53.6414 24.9381 53.7425 24.9976C53.8437 25.0599 53.9167 25.1392 53.9617 25.2384C54.0319 25.3998 54.0684 25.7114 54.0684 26.1759V28.5976H53.0598V26.5328C53.0598 26.2864 53.043 26.1221 53.0121 26.0428C52.9812 25.9635 52.9165 25.9238 52.8182 25.9238C52.7002 25.9238 52.6216 25.989 52.5822 26.1136C52.5626 26.1759 52.5513 26.3175 52.5513 26.5328V28.5976H51.5427V24.9778L51.5455 24.975Z" fill="white"/>
<path d="M42.6648 21.0267H46.6317L44.6117 13.4669L42.6648 21.0267Z" fill="white"/>
<path d="M0.531372 6.57806H14.2134V0.64978H0.531372V6.57523V6.57806ZM0.531372 15.1717V21.0971H14.2134V15.1717H6.81051V13.8376H14.2134V7.91213H0.531372V15.1717Z" fill="white"/>
</svg>
