<svg width="45" height="29" viewBox="0 0 45 29" fill="none" xmlns="http://www.w3.org/2000/svg">
<path d="M37.7688 0.653076V4.63547C38.1228 5.30393 38.429 6.0347 38.6903 6.82778L38.8364 7.2753L37.766 7.51606V14.9654L39.0078 15.3449L38.9151 15.7358C38.6397 16.8971 38.2548 17.9451 37.766 18.8684V22.7092H43.958V0.653076H37.766H37.7688Z" fill="white"/>
<path d="M37.9991 15.9227L37.7688 15.8519L37.3473 15.7244L36.9259 15.5969L32.664 14.2969C32.3353 15.5998 31.8324 16.6279 31.1721 17.3587C30.4052 18.2084 29.2758 18.639 27.8149 18.639C26.3539 18.639 25.1093 18.1121 24.2637 17.0698C23.4265 16.0416 23.0219 14.2459 23.0219 11.5806C23.0219 9.42507 23.3591 7.8729 24.0558 6.8334C24.9801 5.42568 26.3286 4.71191 28.0621 4.71191C28.8262 4.71191 29.5342 4.87619 30.1607 5.19625C30.7872 5.51632 31.321 5.98084 31.7509 6.57565C31.97 6.87588 32.1751 7.29792 32.3718 7.85874L36.9259 6.83623L37.3473 6.74276L37.735 6.65495C37.6142 6.32356 37.485 6.00633 37.3473 5.70042C37.2153 5.40868 37.0748 5.12827 36.9259 4.85919C36.2488 3.63275 35.4032 2.65556 34.3974 1.93896C32.841 0.828644 30.6496 0.267822 27.8907 0.267822C26.7388 0.267822 25.6684 0.372622 24.6823 0.582222L17.1024 8.48754C17.0462 8.78777 16.9984 9.09651 16.9591 9.41091L25.1374 22.8735C26.0674 23.0264 27.0956 23.1029 28.2138 23.1029C30.1804 23.1029 31.8127 22.8168 33.0713 22.2503C34.3187 21.6895 35.3779 20.8426 36.2179 19.738C36.4736 19.4037 36.7068 19.0412 36.9231 18.6531C37.0748 18.3812 37.2153 18.098 37.3445 17.8034C37.499 17.4522 37.6395 17.0868 37.7659 16.7016C37.8474 16.4495 37.9261 16.1917 37.9963 15.9283L37.9991 15.9227Z" fill="white"/>
<path d="M16.844 10.8442L16.4562 10.2069L16.0882 9.60073L15.6106 8.81331L16.3242 8.07121L16.8917 7.47924L17.5379 6.80512L23.0613 1.04678L23.4377 0.653076H22.8843H21.8139H15.2903L7.3199 10.0341V0.653076H1.14191V22.7092H7.3199V17.3729L11.4723 12.9855L16.4169 22.7092H21.7465H22.814H24.053L24.0053 22.6327L16.844 10.8442Z" fill="white"/>
<path d="M0.934022 25.7197H1.71505V26.6828L2.5326 25.7197H3.57211L2.64779 26.6828L3.61143 28.2717H2.64779L2.114 27.2237L1.70943 27.6514V28.2746H0.928406V25.7226L0.934022 25.7197Z" fill="white"/>
<path d="M5.44043 27.227L6.12594 27.4366C6.08099 27.6292 6.00795 27.7935 5.90962 27.9209C5.81129 28.0512 5.68767 28.1503 5.54158 28.2155C5.39549 28.2806 5.20725 28.3146 4.98249 28.3146C4.70717 28.3146 4.48241 28.275 4.30822 28.1928C4.13404 28.1107 3.98233 27.9691 3.85591 27.768C3.72948 27.564 3.66486 27.3063 3.66486 26.9891C3.66486 26.567 3.77723 26.2413 3.99918 26.0147C4.22113 25.7881 4.53579 25.6748 4.94316 25.6748C5.26063 25.6748 5.51348 25.74 5.69328 25.8702C5.8759 26.0005 6.01076 26.1988 6.10066 26.4679L5.40953 26.6237C5.38425 26.5472 5.35896 26.4877 5.33367 26.4537C5.28872 26.3942 5.23534 26.3461 5.17353 26.3149C5.11172 26.2838 5.03868 26.2668 4.96002 26.2668C4.78302 26.2668 4.64817 26.3376 4.55265 26.482C4.48241 26.5897 4.44588 26.7568 4.44588 26.9834C4.44588 27.2666 4.48803 27.4592 4.57231 27.564C4.6566 27.6688 4.7774 27.7227 4.93192 27.7227C5.08644 27.7227 5.1932 27.6802 5.27187 27.5952C5.35053 27.5102 5.40391 27.3884 5.43762 27.227H5.44043Z" fill="white"/>
<path d="M6.53613 25.72H7.31997V28.272H6.53613V25.72Z" fill="white"/>
<path d="M9.59842 25.6549H10.0367C9.88499 25.992 9.77823 26.3036 9.7108 26.5868C9.65461 26.8304 9.62651 27.0881 9.62651 27.3629C9.62651 27.8926 9.76418 28.4392 10.0367 28.9972H9.59842C9.37647 28.6771 9.21914 28.3882 9.12924 28.1305C9.03934 27.8727 8.99438 27.6008 8.99438 27.3176C8.99438 27.0343 9.04215 26.7454 9.13767 26.482C9.23319 26.2186 9.38771 25.941 9.60123 25.6521L9.59842 25.6549Z" fill="white"/>
<path d="M10.2559 25.72H12.6327V26.3488H11.8348V28.2692H11.0537V26.3488H10.2559V25.72Z" fill="white"/>
<path d="M13.0344 25.72H13.7367V26.6604C13.8322 26.5612 13.9278 26.4904 14.0205 26.4451C14.116 26.4026 14.2256 26.38 14.3548 26.38C14.5459 26.38 14.6976 26.4394 14.8071 26.5556C14.9167 26.6717 14.9729 26.853 14.9729 27.0937V28.2692H14.2677V27.2523C14.2677 27.1362 14.2452 27.0541 14.2031 27.0059C14.161 26.9578 14.102 26.9351 14.0233 26.9351C13.939 26.9351 13.8688 26.9663 13.8154 27.0314C13.762 27.0966 13.7367 27.2127 13.7367 27.3826V28.2692H13.0344V25.7172V25.72Z" fill="white"/>
<path d="M16.032 27.0231L15.3606 26.9523C15.3859 26.8333 15.4224 26.7398 15.4701 26.6718C15.5179 26.6039 15.5853 26.5444 15.6752 26.4962C15.7398 26.4594 15.8269 26.4339 15.9421 26.4141C16.0545 26.3943 16.1781 26.3829 16.3074 26.3829C16.5181 26.3829 16.6866 26.3943 16.8159 26.4198C16.9423 26.4424 17.0491 26.4934 17.1361 26.5699C17.1951 26.6209 17.2429 26.6973 17.2766 26.7908C17.3103 26.8871 17.3272 26.9777 17.3272 27.0655V27.8813C17.3272 27.9691 17.3328 28.0371 17.344 28.0852C17.3553 28.1334 17.3778 28.1985 17.4143 28.275H16.7541C16.7288 28.2268 16.7091 28.19 16.7035 28.1674C16.6951 28.1419 16.6866 28.1022 16.6782 28.0484C16.5855 28.139 16.4956 28.2014 16.4029 28.241C16.2793 28.292 16.1332 28.3175 15.9702 28.3175C15.7511 28.3175 15.5853 28.2665 15.4729 28.1645C15.3606 28.0626 15.3016 27.9379 15.3016 27.7878C15.3016 27.6462 15.3437 27.5329 15.4252 27.4423C15.5067 27.3516 15.6584 27.2836 15.8775 27.2412C16.1416 27.1873 16.313 27.1505 16.3888 27.1279C16.4675 27.1052 16.549 27.0797 16.6389 27.0429C16.6389 26.9551 16.622 26.8956 16.5855 26.8588C16.549 26.8248 16.4872 26.8078 16.3973 26.8078C16.2821 26.8078 16.195 26.8276 16.1388 26.8644C16.0938 26.8928 16.0573 26.9466 16.0292 27.0287L16.032 27.0231ZM16.6417 27.3941C16.5462 27.4281 16.445 27.4593 16.3411 27.4876C16.1978 27.5272 16.1079 27.5641 16.0686 27.6009C16.0292 27.6377 16.0096 27.683 16.0096 27.7312C16.0096 27.7878 16.0292 27.8331 16.0686 27.8671C16.1079 27.9039 16.1641 27.9209 16.2399 27.9209C16.3158 27.9209 16.3916 27.9011 16.4591 27.8643C16.5265 27.8246 16.5743 27.7793 16.6024 27.7255C16.6304 27.6689 16.6445 27.598 16.6445 27.5102V27.3969L16.6417 27.3941Z" fill="white"/>
<path d="M17.7767 25.72H18.4791V26.2015H17.7767V25.72ZM17.7767 26.4224H18.4791V28.2692H17.7767V26.4224Z" fill="white"/>
<path d="M18.9511 25.72H19.6563V28.272H18.9511V25.72Z" fill="white"/>
<path d="M20.7435 27.0231L20.072 26.9523C20.0973 26.8333 20.1338 26.7398 20.1816 26.6718C20.2293 26.6039 20.2968 26.5444 20.3867 26.4962C20.4513 26.4594 20.5384 26.4339 20.6536 26.4141C20.7659 26.3943 20.8896 26.3829 21.0188 26.3829C21.2295 26.3829 21.3981 26.3943 21.5273 26.4198C21.6537 26.4424 21.7605 26.4934 21.8476 26.5699C21.9066 26.6209 21.9543 26.6973 21.988 26.7908C22.0218 26.8871 22.0386 26.9777 22.0386 27.0655V27.8813C22.0386 27.9691 22.0442 28.0371 22.0555 28.0852C22.0667 28.1334 22.0892 28.1985 22.1257 28.275H21.4655C21.4402 28.2268 21.4205 28.19 21.4149 28.1674C21.4065 28.1419 21.3981 28.1022 21.3896 28.0484C21.2969 28.139 21.207 28.2014 21.1143 28.241C20.9907 28.292 20.8446 28.3175 20.6817 28.3175C20.4625 28.3175 20.2968 28.2665 20.1844 28.1645C20.072 28.0626 20.013 27.9379 20.013 27.7878C20.013 27.6462 20.0551 27.5329 20.1366 27.4423C20.2181 27.3516 20.3698 27.2836 20.5889 27.2412C20.853 27.1873 21.0244 27.1505 21.1003 27.1279C21.1789 27.1052 21.2604 27.0797 21.3503 27.0429C21.3503 26.9551 21.3334 26.8956 21.2969 26.8588C21.2604 26.8248 21.1986 26.8078 21.1087 26.8078C20.9935 26.8078 20.9064 26.8276 20.8502 26.8644C20.8053 26.8928 20.7687 26.9466 20.7406 27.0287L20.7435 27.0231ZM21.3531 27.3941C21.2576 27.4281 21.1565 27.4593 21.0525 27.4876C20.9092 27.5272 20.8193 27.5641 20.78 27.6009C20.7407 27.6377 20.721 27.683 20.721 27.7312C20.721 27.7878 20.7407 27.8331 20.78 27.8671C20.8193 27.9039 20.8755 27.9209 20.9514 27.9209C21.0272 27.9209 21.1031 27.9011 21.1705 27.8643C21.2379 27.8246 21.2857 27.7793 21.3138 27.7255C21.3419 27.6689 21.3559 27.598 21.3559 27.5102V27.3969L21.3531 27.3941Z" fill="white"/>
<path d="M22.463 26.4254H23.1176V26.7257C23.2159 26.601 23.3142 26.5161 23.4154 26.4622C23.5165 26.4084 23.6373 26.3829 23.7806 26.3829C23.9744 26.3829 24.1262 26.4424 24.2385 26.5585C24.3481 26.6747 24.4043 26.856 24.4043 27.0995V28.275H23.6991V27.2582C23.6991 27.142 23.6766 27.0599 23.6345 27.0117C23.5924 26.9636 23.5334 26.9409 23.4547 26.9409C23.3704 26.9409 23.3002 26.9721 23.2468 27.0372C23.1934 27.1024 23.1681 27.2185 23.1681 27.3884V28.275H22.4658V26.4283L22.463 26.4254Z" fill="white"/>
<path d="M26.7502 25.72V28.272H26.0927V27.9972C26 28.1134 25.9158 28.1927 25.8399 28.2323C25.7388 28.2862 25.6264 28.3116 25.5028 28.3116C25.2527 28.3116 25.0617 28.2153 24.9296 28.0256C24.7976 27.833 24.733 27.6007 24.733 27.3288C24.733 27.0229 24.806 26.7878 24.9521 26.6263C25.0982 26.4649 25.2836 26.3828 25.5056 26.3828C25.6151 26.3828 25.7135 26.4026 25.8034 26.4394C25.8933 26.4762 25.9719 26.5329 26.0394 26.6065V25.7228H26.7502V25.72ZM26.045 27.343C26.045 27.1985 26.0141 27.0909 25.9523 27.0172C25.8905 26.9464 25.8146 26.9096 25.7219 26.9096C25.6404 26.9096 25.573 26.9436 25.5168 27.0116C25.4606 27.0795 25.4353 27.1957 25.4353 27.3571C25.4353 27.5072 25.4634 27.6177 25.5196 27.6885C25.5758 27.7593 25.646 27.7933 25.7303 27.7933C25.8202 27.7933 25.8933 27.7593 25.9551 27.6885C26.0169 27.6177 26.045 27.5016 26.045 27.343Z" fill="white"/>
<path d="M28.006 26.4848C28.1015 26.7482 28.1492 27.0286 28.1492 27.3204C28.1492 27.6121 28.1043 27.8727 28.0144 28.1333C27.9245 28.3938 27.7672 28.6799 27.5452 29H27.1069C27.3795 28.4392 27.5171 27.8953 27.5171 27.3657C27.5171 27.0909 27.489 26.8332 27.4328 26.5896C27.3654 26.3035 27.2586 25.9948 27.1069 25.6577H27.5452C27.7587 25.9466 27.9133 26.2242 28.0088 26.4876L28.006 26.4848Z" fill="white"/>
<path d="M31.4644 27.227L32.1499 27.4366C32.105 27.6292 32.0319 27.7935 31.9336 27.9209C31.8353 28.0512 31.7116 28.1503 31.5656 28.2155C31.4195 28.2806 31.2312 28.3146 31.0065 28.3146C30.7312 28.3146 30.5064 28.275 30.3322 28.1928C30.158 28.1107 30.0063 27.9691 29.8799 27.768C29.7535 27.564 29.6888 27.3063 29.6888 26.9891C29.6888 26.567 29.8012 26.2413 30.0232 26.0147C30.2451 25.7881 30.5598 25.6748 30.9672 25.6748C31.2846 25.6748 31.5375 25.74 31.7173 25.8702C31.8999 26.0005 32.0347 26.1988 32.1246 26.4679L31.4335 26.6237C31.4082 26.5472 31.3829 26.4877 31.3577 26.4537C31.3127 26.3942 31.2593 26.3461 31.1975 26.3149C31.1357 26.2838 31.0627 26.2668 30.984 26.2668C30.807 26.2668 30.6722 26.3376 30.5766 26.482C30.5064 26.5897 30.4699 26.7568 30.4699 26.9834C30.4699 27.2666 30.512 27.4592 30.5963 27.564C30.6806 27.6688 30.8014 27.7227 30.9559 27.7227C31.1104 27.7227 31.2172 27.6802 31.2959 27.5952C31.3745 27.5102 31.4279 27.3884 31.4616 27.227H31.4644Z" fill="white"/>
<path d="M32.3943 27.3545C32.3943 27.0712 32.4899 26.839 32.6781 26.6577C32.8663 26.4736 33.122 26.3829 33.4423 26.3829C33.8103 26.3829 34.0856 26.4906 34.2739 26.7058C34.4256 26.8786 34.5014 27.091 34.5014 27.3431C34.5014 27.6264 34.4087 27.8615 34.2205 28.0427C34.0323 28.224 33.7738 28.3147 33.4451 28.3147C33.1501 28.3147 32.9113 28.2382 32.7315 28.0881C32.5095 27.9011 32.3972 27.6575 32.3972 27.3545H32.3943ZM33.0995 27.3545C33.0995 27.5187 33.1332 27.6405 33.1978 27.7198C33.2625 27.7992 33.3468 27.8388 33.4479 27.8388C33.549 27.8388 33.6333 27.7991 33.6979 27.7227C33.7626 27.6462 33.7963 27.5216 33.7963 27.3488C33.7963 27.1873 33.7626 27.0684 33.6979 26.9919C33.6333 26.9126 33.5518 26.8758 33.4535 26.8758C33.3524 26.8758 33.2653 26.9154 33.2007 26.9947C33.1332 27.074 33.0995 27.1958 33.0995 27.3573V27.3545Z" fill="white"/>
<path d="M34.7795 27.561H35.5297V28.272H34.7795V27.561Z" fill="white"/>
<path d="M35.9567 27.5696H36.7068V28.1531C36.7068 28.3683 36.6618 28.5354 36.5747 28.6601C36.4848 28.7847 36.3359 28.8952 36.1196 28.9886L35.9567 28.6799C36.0915 28.6176 36.1814 28.5553 36.232 28.493C36.2826 28.4306 36.3107 28.357 36.3163 28.272H35.9567V27.5696Z" fill="white"/>
<path d="M37.1788 25.72H37.9599V27.6432H39.1792V28.272H37.176V25.72H37.1788Z" fill="white"/>
<path d="M40.3367 25.72V26.4224H40.7244V26.9408H40.3367V27.5951C40.3367 27.6744 40.3451 27.7254 40.3592 27.7508C40.3816 27.7905 40.4238 27.8103 40.48 27.8103C40.5305 27.8103 40.6036 27.7962 40.6963 27.765L40.7469 28.255C40.5727 28.2918 40.4097 28.3117 40.2608 28.3117C40.0866 28.3117 39.9574 28.289 39.8731 28.2437C39.7888 28.1984 39.7298 28.1304 39.6905 28.0369C39.6512 27.9435 39.6315 27.7962 39.6315 27.5894V26.9379H39.373V26.4196H39.6315V26.0797L40.3367 25.7172V25.72Z" fill="white"/>
<path d="M42.9887 25.72V28.272H42.3313V27.9972C42.2386 28.1134 42.1543 28.1927 42.0785 28.2323C41.9773 28.2862 41.865 28.3116 41.7413 28.3116C41.4913 28.3116 41.3003 28.2153 41.1682 28.0256C41.0362 27.833 40.9716 27.6007 40.9716 27.3288C40.9716 27.0229 41.0446 26.7878 41.1907 26.6263C41.3368 26.4649 41.5222 26.3828 41.7442 26.3828C41.8537 26.3828 41.9521 26.4026 42.042 26.4394C42.1319 26.4762 42.2105 26.5329 42.278 26.6065V25.7228H42.9887V25.72ZM42.2836 27.343C42.2836 27.1985 42.2527 27.0909 42.1909 27.0172C42.1291 26.9464 42.0532 26.9096 41.9605 26.9096C41.879 26.9096 41.8116 26.9436 41.7554 27.0116C41.6992 27.0795 41.6739 27.1957 41.6739 27.3571C41.6739 27.5072 41.702 27.6177 41.7582 27.6885C41.8144 27.7593 41.8846 27.7933 41.9689 27.7933C42.0588 27.7933 42.1319 27.7593 42.1937 27.6885C42.2527 27.6177 42.2836 27.5016 42.2836 27.343Z" fill="white"/>
<path d="M43.4187 27.561H44.1688V28.272H43.4187V27.561Z" fill="white"/>
</svg>
