<svg width="129" height="17" viewBox="0 0 129 17" fill="none" xmlns="http://www.w3.org/2000/svg">
<path d="M9.94618 15.3381C9.76918 15.5023 9.52195 15.5562 9.29157 15.4853C8.79992 15.3296 8.65944 14.6951 9.03871 14.3439L16.7647 7.18915C16.6861 6.75296 16.5737 6.32526 16.4276 5.91172L7.1901 14.4657C7.0131 14.6299 6.76587 14.6838 6.5355 14.613C6.04384 14.4572 5.90336 13.8227 6.28264 13.4715L15.8432 4.6173C15.6494 4.27458 15.433 3.94318 15.1914 3.62878L3.31866 14.6243C4.16993 15.4145 5.201 16.0348 6.37817 16.4087C10.5699 17.7371 15.0903 15.406 16.4754 11.2027C16.7254 10.4408 16.8602 9.66753 16.8855 8.9056L9.94337 15.3352L9.94618 15.3381Z" fill="white"/>
<path d="M11.2301 0.853232C7.03836 -0.475178 2.51796 1.85591 1.1329 6.05924C0.882854 6.82116 0.748002 7.59442 0.722717 8.35634L7.77726 1.82476C7.95425 1.66048 8.20149 1.60666 8.43187 1.67747C8.92352 1.83325 9.06398 2.46772 8.68471 2.81894L0.849138 10.0756C0.927802 10.5118 1.04018 10.9395 1.18628 11.3531L10.5333 2.69714C10.7103 2.53286 10.9576 2.47905 11.1879 2.54986C11.6796 2.70564 11.8201 3.34011 11.4408 3.69133L1.77064 12.6475C1.96449 12.9902 2.18082 13.3216 2.42243 13.636L14.2952 2.6405C13.4467 1.85025 12.4129 1.22995 11.2357 0.856065L11.2301 0.853232Z" fill="white"/>
<path d="M21.1502 14.3552V2.90649H23.2854L28.6318 9.82895L33.8686 2.90649H35.9813V14.3523H33.5399V7.2741C33.5399 6.99369 33.568 6.58582 33.627 6.05332C33.3488 6.63114 33.1269 7.02768 32.9668 7.25144L28.6992 12.9758H28.171L23.9035 7.22878C23.5944 6.81525 23.3669 6.42154 23.2208 6.05332C23.2657 6.51218 23.2882 6.91722 23.2882 7.2741V14.3523H21.153L21.1502 14.3552Z" fill="white"/>
<path d="M41.5468 14.3552V2.90649H53.1668V4.85804H44.1877V7.41006H49.4246V9.3616H44.1877V12.1997H53.2763V14.3523H41.5468V14.3552Z" fill="white"/>
<path d="M60.4938 14.3554L56.1139 2.90955H58.8418L61.7244 10.5854L64.7389 2.90955H66.5875L69.6695 10.5854L72.42 2.90955H74.7743L70.3943 14.3554H68.6131L65.489 6.43592L62.32 14.3554H60.4938Z" fill="white"/>
<path d="M78.2946 5.6143C78.2946 4.5493 78.4912 3.8327 78.8873 3.46165C79.2835 3.09343 80.0252 2.90649 81.1096 2.90649H89.4706C90.555 2.90649 91.2967 3.0906 91.6929 3.46165C92.089 3.8327 92.2856 4.5493 92.2856 5.6143V11.6502C92.2856 12.7152 92.089 13.4318 91.6929 13.8029C91.2967 14.1739 90.555 14.358 89.4706 14.358H81.1096C80.0252 14.358 79.2835 14.1739 78.8873 13.8029C78.4912 13.4318 78.2946 12.7152 78.2946 11.6502V5.6143ZM80.9355 12.2025H89.6504V4.94868H80.9355V12.2025Z" fill="white"/>
<path d="M97.8568 14.3552V2.90649H107.583C109.286 2.90649 110.137 3.64576 110.137 5.12429V7.80943C110.137 9.28796 109.286 10.0272 107.583 10.0272H106.086L111.323 14.3523H107.538L102.962 10.0272H100.453V14.3523H97.8568V14.3552ZM106.395 4.86087H100.453V8.07851H106.395C106.805 8.07851 107.091 8.03319 107.254 7.94539C107.474 7.81226 107.583 7.55168 107.583 7.16364V5.77858C107.583 5.39337 107.474 5.12995 107.254 4.99683C107.091 4.90902 106.808 4.8637 106.395 4.8637V4.86087Z" fill="white"/>
<path d="M113.767 14.3552L119.158 8.47505L113.68 2.90649H117.177L120.807 6.78976L124.263 2.90649H127.3L122.35 8.16349L128.469 14.3523H124.881L120.723 9.91393L116.894 14.3523H113.77L113.767 14.3552Z" fill="white"/>
</svg>
