<svg width="186" height="188" viewBox="0 0 186 188" fill="none" xmlns="http://www.w3.org/2000/svg">
<g opacity="0.3" clip-path="url(#clip0_161_1115)">
<path d="M93.0892 50.655C96.6743 50.655 99.5817 47.732 99.5817 44.1275C99.5817 40.5231 96.6743 37.6001 93.0892 37.6001C73.8613 37.6001 58.2186 53.3269 58.2186 72.6581C58.2186 91.9893 72.9873 106.963 91.8228 107.609C91.8941 107.609 91.9655 107.609 92.0368 107.609C92.3044 107.609 92.5719 107.609 92.8395 107.555C92.9821 107.555 93.1605 107.555 93.1962 107.555C93.5529 107.609 93.9275 107.626 94.3021 107.626C113.066 107.089 127.835 91.7562 127.942 72.6581C127.942 67.2604 126.658 61.8448 124.232 56.9493C122.627 53.7214 118.738 52.4123 115.528 54.0263C112.317 55.6402 111.033 59.5495 112.62 62.7773C114.172 65.8976 114.957 69.2151 114.957 72.6043C114.885 84.4398 105.86 93.9978 94.3377 94.5357C93.5351 94.464 92.6789 94.464 91.8406 94.5357C80.229 93.926 71.1858 84.386 71.1858 72.6402C71.1858 60.8944 80.996 50.637 93.0713 50.637L93.0892 50.655Z" fill="#171717"/>
<path d="M186 94.3206C186 42.7646 144.28 0.820557 93 0.820557C79.8544 0.820557 67.244 3.4925 55.4896 8.78258C52.2256 10.253 50.7451 14.1085 52.2077 17.4081C53.6703 20.6898 57.5052 22.1602 60.7871 20.7077C70.8648 16.1708 81.6916 13.8754 93 13.8754C137.128 13.8754 173.015 49.9556 173.015 94.3206C173.015 114.064 165.898 132.158 154.108 146.181C151.005 140.353 146.082 135.045 139.589 130.652C113.994 113.437 72.1847 113.419 46.3751 130.652C39.9005 135.027 34.9776 140.353 31.874 146.163C20.084 132.14 12.9672 114.046 12.9672 94.3026C12.9672 76.7826 18.4965 60.0874 28.9666 46.0284C31.107 43.1412 30.5363 39.0526 27.6646 36.9007C24.7929 34.7488 20.7261 35.3227 18.5857 38.2098C6.43901 54.5642 0 73.9672 0 94.3206C0 121.614 11.683 146.199 30.2865 163.307C30.2865 163.307 30.3044 163.325 30.3222 163.343C30.9108 163.881 31.5173 164.401 32.1237 164.921C32.6588 165.387 33.1761 165.853 33.7112 166.302C34.1392 166.66 34.5673 166.983 34.9954 167.324C35.7267 167.915 36.4758 168.507 37.225 169.081C37.5639 169.332 37.9206 169.583 38.2595 169.834C39.1157 170.462 39.9718 171.09 40.8458 171.681C41.1669 171.897 41.5058 172.112 41.8447 172.327C42.7365 172.919 43.6461 173.51 44.5737 174.084C44.9304 174.299 45.305 174.515 45.6795 174.73C46.5714 175.268 47.4632 175.788 48.3728 176.29C48.8009 176.523 49.229 176.738 49.6571 176.971C50.5132 177.438 51.3872 177.886 52.2612 178.316C52.7606 178.567 53.2601 178.783 53.7417 179.016C54.5621 179.392 55.3826 179.787 56.2209 180.145C56.7917 180.397 57.3447 180.63 57.9154 180.863C58.7002 181.186 59.4672 181.49 60.252 181.795C60.8763 182.028 61.5006 182.261 62.1427 182.477C62.8918 182.746 63.6231 182.997 64.3723 183.23C65.0501 183.445 65.7279 183.66 66.4056 183.875C67.1191 184.091 67.8504 184.306 68.5817 184.503C69.2952 184.7 70.0086 184.88 70.7221 185.059C71.4356 185.238 72.1669 185.4 72.8982 185.561C73.6295 185.722 74.3429 185.884 75.0742 186.027C75.8234 186.171 76.5725 186.296 77.3216 186.44C78.0351 186.565 78.7486 186.691 79.462 186.798C80.2825 186.924 81.103 187.014 81.9235 187.121C82.5834 187.193 83.2434 187.283 83.9033 187.354C84.8844 187.444 85.8654 187.516 86.8464 187.587C87.3636 187.623 87.8809 187.677 88.3982 187.695C89.9143 187.767 91.4482 187.821 92.9822 187.821C94.5161 187.821 96.0322 187.785 97.5662 187.695C98.0834 187.677 98.6007 187.623 99.118 187.587C100.099 187.516 101.08 187.462 102.061 187.354C102.721 187.283 103.381 187.193 104.041 187.121C104.861 187.032 105.682 186.924 106.502 186.798C107.216 186.691 107.929 186.565 108.643 186.44C109.392 186.314 110.141 186.189 110.89 186.027C111.621 185.884 112.353 185.722 113.066 185.561C113.797 185.4 114.511 185.238 115.242 185.059C115.956 184.88 116.669 184.7 117.383 184.503C118.114 184.306 118.827 184.091 119.559 183.875C120.236 183.678 120.914 183.463 121.592 183.23C122.341 182.979 123.09 182.728 123.822 182.477C124.446 182.261 125.088 182.028 125.712 181.795C126.497 181.49 127.282 181.186 128.049 180.863C128.62 180.63 129.19 180.397 129.743 180.145C130.582 179.787 131.402 179.41 132.223 179.016C132.722 178.783 133.222 178.549 133.703 178.316C134.577 177.886 135.451 177.438 136.307 176.971C136.735 176.738 137.163 176.523 137.591 176.29C138.501 175.788 139.393 175.268 140.285 174.73C140.659 174.515 141.016 174.299 141.391 174.084C142.3 173.51 143.21 172.919 144.12 172.327C144.441 172.112 144.78 171.897 145.119 171.681C145.993 171.09 146.849 170.462 147.705 169.834C148.044 169.583 148.4 169.35 148.739 169.081C149.488 168.507 150.238 167.915 150.969 167.324C151.397 166.983 151.825 166.642 152.253 166.302C152.788 165.853 153.306 165.387 153.841 164.921C154.447 164.401 155.054 163.881 155.642 163.343C155.642 163.343 155.66 163.325 155.678 163.307C174.281 146.199 185.964 121.614 185.964 94.3206H186ZM53.599 141.501C75.0386 127.191 111.122 127.173 132.383 141.483C138.555 145.661 142.657 150.754 144.245 156.062C144.227 156.08 144.191 156.098 144.173 156.134C143.656 156.564 143.121 156.977 142.586 157.407C142.14 157.766 141.676 158.142 141.23 158.483C140.784 158.824 140.32 159.164 139.857 159.487C139.304 159.9 138.751 160.294 138.18 160.689C137.752 160.976 137.324 161.263 136.896 161.549C136.289 161.962 135.665 162.356 135.041 162.751C134.631 163.002 134.203 163.271 133.774 163.522C133.132 163.917 132.472 164.293 131.812 164.652C131.402 164.885 130.974 165.118 130.546 165.351C129.868 165.71 129.19 166.068 128.495 166.409C128.067 166.624 127.657 166.84 127.228 167.037C126.515 167.378 125.802 167.7 125.07 168.023C124.66 168.202 124.25 168.4 123.822 168.579C123.037 168.92 122.216 169.225 121.414 169.529C121.057 169.673 120.7 169.816 120.344 169.942C119.22 170.354 118.078 170.749 116.919 171.107C116.455 171.251 115.991 171.376 115.528 171.52C114.814 171.735 114.101 171.95 113.369 172.148C112.816 172.291 112.264 172.417 111.728 172.56C111.068 172.721 110.409 172.883 109.749 173.026C109.178 173.152 108.625 173.259 108.054 173.367C107.376 173.493 106.716 173.618 106.039 173.726C105.486 173.815 104.933 173.905 104.362 173.977C103.648 174.084 102.917 174.174 102.186 174.246C101.669 174.299 101.151 174.371 100.616 174.425C99.7779 174.497 98.9396 174.568 98.1013 174.622C97.6732 174.658 97.263 174.694 96.8349 174.712C95.5506 174.766 94.2842 174.802 92.9822 174.802C91.6801 174.802 90.4137 174.766 89.1295 174.712C88.7014 174.694 88.2911 174.658 87.8631 174.622C87.0247 174.568 86.1864 174.515 85.3481 174.425C84.8308 174.371 84.3136 174.317 83.7785 174.246C83.0472 174.156 82.3337 174.066 81.6203 173.977C81.0673 173.905 80.4966 173.815 79.9436 173.726C79.2658 173.618 78.6059 173.493 77.9281 173.367C77.3573 173.259 76.7865 173.152 76.2158 173.026C75.5558 172.883 74.8959 172.721 74.2537 172.56C73.7008 172.434 73.1479 172.291 72.5949 172.148C71.8815 171.95 71.168 171.753 70.4724 171.538C69.9908 171.394 69.5092 171.269 69.0455 171.125C67.9039 170.767 66.7624 170.372 65.6387 169.96C65.2641 169.816 64.8895 169.673 64.5328 169.529C63.748 169.225 62.9632 168.92 62.1784 168.597C61.7503 168.418 61.3222 168.22 60.8941 168.023C60.1807 167.7 59.4672 167.395 58.7716 167.055C58.3435 166.857 57.9154 166.624 57.4873 166.409C56.8096 166.068 56.1318 165.728 55.454 165.351C55.0259 165.118 54.5978 164.885 54.1876 164.652C53.5276 164.275 52.8677 163.899 52.2256 163.522C51.7975 163.271 51.3872 163.02 50.9591 162.751C50.3349 162.356 49.7106 161.962 49.1041 161.549C48.6761 161.263 48.248 160.994 47.8377 160.689C47.267 160.294 46.6962 159.882 46.1433 159.469C45.6974 159.147 45.2336 158.824 44.7877 158.483C44.3061 158.124 43.8424 157.748 43.3786 157.371C42.8613 156.959 42.3441 156.564 41.8447 156.134C41.809 156.116 41.7911 156.08 41.7555 156.062C43.3251 150.736 47.4453 145.661 53.5811 141.501H53.599Z" fill="#171717"/>
</g>
<defs>
<clipPath id="clip0_161_1115">
<rect width="186" height="187" fill="white" transform="translate(0 0.820557)"/>
</clipPath>
</defs>
</svg>
